<?xml version="1.0" encoding="utf-8"?>
<!-- Generator: Adobe Illustrator 15.0.0, SVG Export Plug-In . SVG Version: 6.00 Build 0)  -->
<!DOCTYPE svg PUBLIC "-//W3C//DTD SVG 1.1//EN" "http://www.w3.org/Graphics/SVG/1.1/DTD/svg11.dtd">
<svg version="1.1" id="Layer_1" xmlns="http://www.w3.org/2000/svg" xmlns:xlink="http://www.w3.org/1999/xlink" x="0px" y="0px"
	 width="740.414px" height="188.531px" viewBox="0 0 740.414 188.531" enable-background="new 0 0 740.414 188.531"
	 xml:space="preserve">
<g>
	<g>
		<path fill="#FFFFFF" d="M237.4,104.569l-5.818,17.619h-7.479l19.114-56.015h8.643l19.116,56.015h-7.73l-5.983-17.619H237.4z
			 M255.851,98.919l-5.569-16.125c-1.247-3.655-2.078-6.981-2.91-10.223h-0.165c-0.832,3.242-1.663,6.732-2.826,10.14l-5.485,16.208
			H255.851z"/>
		<path fill="#FFFFFF" d="M299.904,66.838c3.492-0.581,8.062-1.082,13.88-1.082c7.148,0,12.381,1.663,15.707,4.654
			c2.992,2.661,4.905,6.731,4.905,11.719c0,5.069-1.497,9.059-4.324,11.967c-3.907,4.073-10.055,6.151-17.119,6.151
			c-2.161,0-4.156-0.085-5.819-0.499v22.438h-7.23V66.838z M307.135,93.848c1.58,0.417,3.575,0.583,5.985,0.583
			c8.726,0,14.047-4.322,14.047-11.885c0-7.48-5.321-11.053-13.217-11.053c-3.158,0-5.568,0.248-6.815,0.582V93.848z"/>
		<path fill="#FFFFFF" d="M362.231,66.838c3.489-0.581,8.063-1.082,13.879-1.082c7.146,0,12.381,1.663,15.708,4.654
			c2.991,2.661,4.9,6.731,4.9,11.719c0,5.069-1.495,9.059-4.32,11.967c-3.907,4.073-10.057,6.151-17.116,6.151
			c-2.164,0-4.158-0.085-5.822-0.499v22.438h-7.229V66.838z M369.461,93.848c1.582,0.417,3.573,0.583,5.984,0.583
			c8.727,0,14.049-4.322,14.049-11.885c0-7.48-5.322-11.053-13.216-11.053c-3.159,0-5.569,0.248-6.817,0.582V93.848z"/>
		<path fill="#FFFFFF" d="M437.787,72.324h-17.041v-6.15h41.475v6.15h-17.121v49.865h-7.313V72.324z"/>
		<path fill="#FFFFFF" d="M488.622,66.174v56.015h-7.313V66.174H488.622z"/>
		<path fill="#FFFFFF" d="M566.575,97.587c-0.42-7.81-0.916-17.286-0.916-24.184h-0.165c-1.998,6.484-4.241,13.546-7.065,21.277
			l-9.89,27.176h-5.484l-9.143-26.676c-2.662-7.98-4.82-15.129-6.403-21.777h-0.166c-0.167,6.982-0.581,16.291-1.076,24.768
			l-1.495,24.018h-6.898l3.906-56.015h9.223l9.557,27.092c2.329,6.898,4.153,13.049,5.65,18.865h0.166
			c1.496-5.649,3.492-11.8,5.983-18.865l9.976-27.092h9.223l3.492,56.015h-7.146L566.575,97.587z"/>
		<path fill="#FFFFFF" d="M611.527,66.174v56.015h-7.313V66.174H611.527z"/>
		<path fill="#FFFFFF" d="M635.865,117.95l30.999-45.462V72.24h-28.34v-6.066h37.811v4.404l-30.913,45.293v0.251h31.332v6.066
			h-40.889V117.95z"/>
		<path fill="#FFFFFF" d="M735.27,95.928h-21.695v20.194h24.269v6.066h-31.58V66.174H736.6v6.066h-23.025v17.701h21.695V95.928z"/>
	</g>
	<g>
		<path fill-rule="evenodd" clip-rule="evenodd" fill="#FFFFFF" d="M18.103,133.246c0,0-11.825-8.296-14.289-13.961
			c-2.464-5.665,0-16.837,16.753-42.129c16.752-25.292,28.988-56.008,55.597-57.65c26.607-1.642,35.483,19.161,36.874,20.45
			c5.68,5.266,39.487,68.833,39.487,68.833s10.034,19.447,3.464,32.586c-6.572,13.144-19.301,25.377-36.054,26.611
			c-16.752,1.23-70.706,0-70.706,0s-13.467,1.315-21.681-11.414c-8.213-12.729,2.379-26.61,6.077-32.359
			c3.695-5.748,35.231-59.292,35.231-59.292s2.085-3.748,4.551-6.623c1.449-1.689,5.671-3.014,7.86,0.15
			c10.365,13.242,38.668,60.838,38.668,60.838s3.756,6.52,1.019,11.77c-1.877,3.599-11.201,3.013-11.201,3.013H55.305l8.212-13.14
			h39.254c0,0,2.465,2.138-2.053-5.255c-3.688-6.032-15.8-25.691-20.127-32.713c-0.973-1.579-2.491-2.613-4.077-1
			c-0.89,0.905-1.981,2.347-3.224,4.641c-4.711,8.695-31.043,49.027-33.095,53.953c-2.053,4.928-1.147,12.731,7.802,13.144
			c8.95,0.408,67.421,0,67.421,0s15.931,1.558,24.145-13.144c8.213-14.698-6.897-38.432-6.897-38.432L102.36,51.043
			c0,0-10.677-15.605-22.501-14.785C68.035,37.08,60.231,40.86,40.194,72.723c-20.039,31.863-21.681,36.378-20.449,40.484
			c1.232,4.109,6.161,7.309,6.161,7.309L18.103,133.246z"/>
	</g>
</g>
</svg>
